# xmcd
#
# Track frame offsets: 
#        150
#        16443
#        30897
#        48776
#        70168
#        86253
#        108292
#        127928
#        141697
#        160939
#        175214
#        191523
#        205075
#        225754
#        243574
#        259699
#        277390
#        298526
#
# Disc length: 4227 seconds
#
# Revision: 2
# Processed by: cddbd v1.5.2PL0 Copyright (c) Steve Scherf et al.
# Submitted via: ExactAudioCopy v0.99pb4
#
DISCID=f4108112
DTITLE=Alabama - Lovin, Livin, Rockin, Rolin: The 25th Anniversary Col
DTITLE=lection [CD2]
DYEAR=2006
DGENRE=Country
TTITLE0=Feels So Right
TTITLE1=Old Flame
TTITLE2=Lady Down On Love
TTITLE3=Very Special Love
TTITLE4=Close Enough To Perfect
TTITLE5=Take Me Down
TTITLE6=Deep River When We Make Love (Live) 
TTITLE7=Face To Face
TTITLE8=You've Got The Touch
TTITLE9=You Turn Me On
TTITLE10=Forever's As Far As I'll Go
TTITLE11=How Do You Fall In Love
TTITLE12=I Just Couldn't Say No
TTITLE13=Too Much Love
TTITLE14=If I Had You
TTITLE15=The Woman He Loves
TTITLE16=God Must Have Spent A Little More Time On You (With NSync)
TTITLE17=Angels Among Us
EXTD=
EXTT0=
EXTT1=
EXTT2=
EXTT3=
EXTT4=
EXTT5=
EXTT6=
EXTT7=
EXTT8=
EXTT9=
EXTT10=
EXTT11=
EXTT12=
EXTT13=
EXTT14=
EXTT15=
EXTT16=
EXTT17=
PLAYORDER=
